<svg width="123" viewBox="0 0 123 52" fill="none" xmlns="http://www.w3.org/2000/svg">
    <mask id="mask0_312_55" style="mask-type:luminance" maskUnits="userSpaceOnUse" x="0" y="0"
        width="50" height="52">
        <path
            d="M4.55556 27.5556C7.51872 27.8073 17.3333 30.1111 17.3333 33.9444C17.3333 37.7778 12.0497 36.4859 9.66667 36.5C7.62094 36.3262 2 36.5 2 40.3333C2 44.1667 10.9444 46.7222 19.8889 48C28.8333 49.2778 42.8889 49.2778 42.8889 49.2778M4.55556 19.8889L12.2222 12.2222M30.1111 2H42.8889L48 7.11111"
            stroke="white" stroke-width="4" stroke-linecap="round" stroke-linejoin="round" />
        <path d="M32.6667 12.2222L40.3333 19.8889H19.8889L12.2222 12.2222H32.6667Z" fill="#555555"
            stroke="white" stroke-width="4" stroke-linecap="round" stroke-linejoin="round" />
        <path d="M48 22.4445V14.7778M27.5556 32.6667V27.5556M35.2222 37.7778V27.5556" stroke="white"
            stroke-width="4" stroke-linecap="round" stroke-linejoin="round" />
    </mask>
    <g mask="url(#mask0_312_55)">
        <path d="M-5.66667 -5.66666H55.6667V55.6667H-5.66667V-5.66666Z" fill="black" />
    </g>
    <path
        d="M67.8589 36.0562V41.2124C67.8589 42.1255 67.6082 42.8381 67.1069 43.3501C66.6092 43.8621 65.8501 44.1182 64.8296 44.1182C63.8091 44.1182 63.0553 43.8621 62.5684 43.3501C62.0814 42.8381 61.8379 42.1219 61.8379 41.2017V36.0562H62.7725V41.2178C62.7725 41.9375 62.9425 42.4674 63.2827 42.8076C63.6229 43.1478 64.1493 43.3179 64.8618 43.3179C65.5565 43.3179 66.0739 43.146 66.4141 42.8022C66.7578 42.4585 66.9297 41.9285 66.9297 41.2124V36.0562H67.8589ZM69.1855 41.3306V40.541H71.8711V41.3306H69.1855ZM79.3906 44H78.4614V40.2832H74.1968V44H73.2676V36.0562H74.1968V39.4668H78.4614V36.0562H79.3906V44ZM81.7485 41.0674C81.7485 41.7656 81.9025 42.326 82.2104 42.7485C82.522 43.1675 82.9749 43.377 83.5693 43.377C84.1566 43.377 84.5988 43.1675 84.896 42.7485C85.1968 42.3296 85.3472 41.7656 85.3472 41.0566C85.3472 40.3369 85.1986 39.7712 84.9014 39.3594C84.6077 38.944 84.1584 38.7363 83.5532 38.7363C82.966 38.7363 82.5184 38.9476 82.2104 39.3701C81.9025 39.7926 81.7485 40.3584 81.7485 41.0674ZM86.2764 41.0513C86.2764 41.9644 86.0329 42.7056 85.5459 43.2749C85.0589 43.8407 84.3857 44.1235 83.5264 44.1235C82.6992 44.1235 82.0404 43.8371 81.5498 43.2642C81.0628 42.6912 80.8193 41.9554 80.8193 41.0566C80.8193 40.14 81.0646 39.3988 81.5552 38.833C82.0457 38.2673 82.7189 37.9844 83.5747 37.9844C84.4162 37.9844 85.0768 38.269 85.5566 38.8384C86.0365 39.4041 86.2764 40.1418 86.2764 41.0513ZM95.0312 44V40.9331C95.0312 40.6466 95.0241 40.4067 95.0098 40.2134C94.999 40.02 94.9704 39.8231 94.9238 39.6226C94.8809 39.422 94.8182 39.2645 94.7358 39.1499C94.6571 39.0317 94.5461 38.9368 94.4028 38.8652C94.2596 38.79 94.0877 38.7524 93.8872 38.7524C93.4933 38.7524 93.1567 38.8581 92.8774 39.0693C92.6017 39.2806 92.4048 39.5778 92.2866 39.9609C92.2544 40.2188 92.2383 40.4945 92.2383 40.7881V44H91.3413V40.8364C91.3413 40.5715 91.3324 40.3423 91.3145 40.1489C91.2965 39.952 91.2625 39.7622 91.2124 39.5796C91.1623 39.3934 91.0942 39.243 91.0083 39.1284C90.9259 39.0138 90.8149 38.9225 90.6753 38.8545C90.5356 38.7865 90.3691 38.7524 90.1758 38.7524C89.7461 38.7524 89.3844 38.8617 89.0908 39.0801C88.8008 39.2985 88.6056 39.5885 88.5054 39.9502C88.4731 40.2259 88.457 40.5249 88.457 40.8472V44H87.5601C87.5529 40.3154 87.5493 38.3514 87.5493 38.1079H88.3013L88.4141 38.9512C88.5931 38.679 88.8473 38.4499 89.1768 38.2637C89.5062 38.0775 89.8804 37.9844 90.2993 37.9844C90.5177 37.9844 90.7183 38.0076 90.9009 38.0542C91.0871 38.0972 91.241 38.1527 91.3628 38.2207C91.4881 38.2887 91.5991 38.3711 91.6958 38.4678C91.7925 38.5609 91.8677 38.654 91.9214 38.7471C91.9751 38.8366 92.0199 38.9315 92.0557 39.0317C92.4854 38.3335 93.1424 37.9844 94.0269 37.9844C94.6821 37.9844 95.1619 38.1724 95.4663 38.5483C95.7743 38.9207 95.9282 39.474 95.9282 40.208V44H95.0312ZM100.472 39.1982C100.211 38.8831 99.8509 38.7256 99.3926 38.7256C98.9342 38.7256 98.5601 38.8885 98.27 39.2144C97.98 39.5366 97.8099 39.9788 97.7598 40.541H100.87C100.87 39.9574 100.737 39.5098 100.472 39.1982ZM99.5698 44.1235C98.714 44.1235 98.0391 43.8514 97.5449 43.3071C97.0544 42.7629 96.8091 42.0181 96.8091 41.0728C96.8091 40.1597 97.0472 39.4202 97.5234 38.8545C97.9997 38.2852 98.6263 37.9951 99.4033 37.9844C100.134 37.9844 100.712 38.235 101.138 38.7363C101.568 39.234 101.783 39.9001 101.783 40.7344C101.783 40.7773 101.781 40.8561 101.777 40.9707C101.777 41.0853 101.777 41.1676 101.777 41.2178H97.7329C97.7437 41.8874 97.9155 42.4102 98.2485 42.7861C98.5851 43.1585 99.0363 43.3447 99.6021 43.3447C100.225 43.3447 100.85 43.18 101.477 42.8506L101.616 43.5757C101.018 43.9409 100.336 44.1235 99.5698 44.1235ZM104.785 44.1235C104.384 44.1235 104.014 44.0806 103.673 43.9946C103.337 43.9087 103.063 43.7977 102.852 43.6616L102.964 42.9043C103.562 43.223 104.15 43.3823 104.726 43.3823C105.6 43.3823 106.049 43.0744 106.074 42.4585C106.074 42.1971 105.981 41.9912 105.795 41.8408C105.609 41.6904 105.243 41.5221 104.699 41.3359L104.253 41.1802C103.738 41.0083 103.369 40.7952 103.147 40.541C102.929 40.2868 102.818 39.9699 102.814 39.5903C102.814 39.1284 102.998 38.7453 103.367 38.4409C103.74 38.1366 104.248 37.9844 104.893 37.9844C105.559 37.9844 106.166 38.1133 106.713 38.3711L106.45 39.0586C105.895 38.8294 105.376 38.7148 104.893 38.7148C104.517 38.7148 104.221 38.79 104.006 38.9404C103.795 39.0872 103.689 39.2949 103.689 39.5635C103.689 39.7926 103.766 39.9681 103.92 40.0898C104.074 40.2116 104.382 40.3512 104.844 40.5088C104.962 40.5518 105.111 40.6019 105.29 40.6592C105.884 40.8525 106.305 41.0817 106.552 41.3467C106.799 41.6081 106.923 41.9626 106.923 42.4102C106.916 42.9544 106.721 43.377 106.337 43.6777C105.954 43.9749 105.437 44.1235 104.785 44.1235ZM110.033 44.1074C109.453 44.1074 109.041 43.966 108.797 43.6831C108.554 43.4002 108.425 42.9437 108.411 42.3135V38.7739H107.535L107.573 38.1831L108.405 38.1079L108.711 36.7598L109.302 36.7383V38.1079H110.94V38.7739H109.302V42.1523C109.302 42.5999 109.37 42.915 109.506 43.0977C109.642 43.2803 109.875 43.3716 110.205 43.3716C110.323 43.3716 110.579 43.3429 110.973 43.2856L111.01 43.9946C110.584 44.0698 110.258 44.1074 110.033 44.1074ZM113.647 43.3984C114.074 43.3984 114.448 43.2821 114.77 43.0493C115.096 42.813 115.305 42.4961 115.398 42.0986V41.105C115.381 41.105 115.271 41.1139 115.071 41.1318C114.874 41.1497 114.745 41.1605 114.684 41.1641C113.907 41.2321 113.365 41.3592 113.057 41.5454C112.752 41.7316 112.6 42.0306 112.6 42.4424C112.6 42.7575 112.693 42.9956 112.879 43.1567C113.066 43.3179 113.322 43.3984 113.647 43.3984ZM115.597 44C115.543 43.7708 115.492 43.5238 115.441 43.2588C115.116 43.5846 114.809 43.8102 114.523 43.9355C114.236 44.0609 113.9 44.1235 113.513 44.1235C112.962 44.1235 112.518 43.9803 112.181 43.6938C111.848 43.4038 111.682 42.9884 111.682 42.4478C111.682 41.8462 111.909 41.4004 112.364 41.1104C112.822 40.8203 113.481 40.6395 114.34 40.5679C114.458 40.5571 114.636 40.5428 114.872 40.5249C115.112 40.5034 115.291 40.4873 115.409 40.4766V39.9556C115.409 39.5402 115.312 39.2323 115.119 39.0317C114.926 38.8312 114.621 38.731 114.206 38.731C113.626 38.731 113.041 38.8742 112.45 39.1606C112.432 39.1177 112.385 38.9941 112.31 38.79C112.235 38.5824 112.195 38.4749 112.192 38.4678C112.453 38.321 112.763 38.2046 113.121 38.1187C113.483 38.0291 113.85 37.9844 114.222 37.9844C114.956 37.9844 115.484 38.1455 115.807 38.4678C116.132 38.7865 116.295 39.3307 116.295 40.1006V44H115.597ZM117.09 38.1079H118.041L119.899 43.0117L121.554 38.1079H122.504C120.915 42.4836 120.093 44.7394 120.039 44.8755C119.792 45.495 119.493 45.9479 119.142 46.2344C118.791 46.5244 118.329 46.6694 117.756 46.6694C117.584 46.6694 117.404 46.6551 117.214 46.6265L117.16 45.8638C117.361 45.8781 117.511 45.8853 117.611 45.8853C118.016 45.8853 118.322 45.8101 118.53 45.6597C118.741 45.5129 118.929 45.2354 119.094 44.8271C119.241 44.4512 119.35 44.1611 119.421 43.957L117.09 38.1079Z"
        fill="black" fill-opacity="0.32" />
    <path
        d="M69.85 30.3C67.3667 30.3 65.425 29.6083 64.025 28.225C62.625 26.8417 61.925 24.8667 61.925 22.3V12.5H65.975V22.15C65.975 23.8167 66.3167 25.0167 67 25.75C67.6833 26.4833 68.6417 26.85 69.875 26.85C71.1083 26.85 72.0667 26.4833 72.75 25.75C73.4333 25.0167 73.775 23.8167 73.775 22.15V12.5H77.775V22.3C77.775 24.8667 77.075 26.8417 75.675 28.225C74.275 29.6083 72.3333 30.3 69.85 30.3ZM93.7771 12.5H97.8271V30H93.7771V12.5ZM85.8271 30H81.7771V12.5H85.8271V30ZM94.0771 22.825H85.5271V19.4H94.0771V22.825Z"
        fill="black" />
    <line x1="55" x2="55" y2="52" stroke="black" stroke-width="2" />
</svg>