<svg width="125" viewBox="0 0 119 36" fill="none" xmlns="http://www.w3.org/2000/svg">
    <circle cx="18" cy="18" r="18" fill="#199342" />
    <mask id="mask0_312_85" style="mask-type:luminance" maskUnits="userSpaceOnUse" x="7" y="4"
        width="23" height="28">
        <path
            d="M9.63158 18.9986C10.9131 19.1297 15.1579 20.33 15.1579 22.3272C15.1579 24.3243 12.8728 23.6513 11.8421 23.6586C10.9573 23.5681 8.52632 23.6586 8.52632 25.6558C8.52632 27.6529 12.3947 28.9843 16.2632 29.6501C20.1316 30.3158 26.2105 30.3158 26.2105 30.3158M9.63158 15.0043L12.9474 11.01M20.6842 5.6842H26.2105L28.4211 8.34708"
            stroke="white" stroke-width="2" stroke-linecap="round" stroke-linejoin="round" />
        <path d="M21.7895 11.0099L25.1053 15.0043H16.2632L12.9474 11.0099H21.7895Z" fill="#333333"
            fill-opacity="0.93" stroke="white" stroke-width="2" stroke-linecap="round"
            stroke-linejoin="round" />
        <path d="M28.4211 16.8567V12.8624M19.5789 22.1824V19.5196M22.8947 24.8453V19.5196"
            stroke="white" stroke-width="2" stroke-linecap="round" stroke-linejoin="round" />
    </mask>
    <g mask="url(#mask0_312_85)">
        <path d="M5.21053 1.6899H31.7368V33.6444H5.21053V1.6899Z" fill="white" />
    </g>
    <path
        d="M42.484 13.624V18.808C42.484 19.376 42.632 19.812 42.928 20.116C43.224 20.412 43.64 20.56 44.176 20.56C44.72 20.56 45.14 20.412 45.436 20.116C45.732 19.812 45.88 19.376 45.88 18.808V13.624H47.572V18.796C47.572 19.508 47.416 20.112 47.104 20.608C46.8 21.096 46.388 21.464 45.868 21.712C45.356 21.96 44.784 22.084 44.152 22.084C43.528 22.084 42.96 21.96 42.448 21.712C41.944 21.464 41.544 21.096 41.248 20.608C40.952 20.112 40.804 19.508 40.804 18.796V13.624H42.484ZM54.3072 17.008V18.424H49.2192V17.008H54.3072ZM63.1393 13.624V22H61.4593V18.436H57.8713V22H56.1913V13.624H57.8713V17.068H61.4593V13.624H63.1393ZM67.7448 22.108C67.1048 22.108 66.5288 21.968 66.0168 21.688C65.5048 21.4 65.1008 20.996 64.8048 20.476C64.5168 19.956 64.3728 19.356 64.3728 18.676C64.3728 17.996 64.5208 17.396 64.8168 16.876C65.1208 16.356 65.5328 15.956 66.0528 15.676C66.5728 15.388 67.1528 15.244 67.7928 15.244C68.4328 15.244 69.0128 15.388 69.5328 15.676C70.0528 15.956 70.4608 16.356 70.7568 16.876C71.0608 17.396 71.2128 17.996 71.2128 18.676C71.2128 19.356 71.0568 19.956 70.7448 20.476C70.4408 20.996 70.0248 21.4 69.4968 21.688C68.9768 21.968 68.3928 22.108 67.7448 22.108ZM67.7448 20.644C68.0488 20.644 68.3328 20.572 68.5968 20.428C68.8688 20.276 69.0848 20.052 69.2448 19.756C69.4048 19.46 69.4848 19.1 69.4848 18.676C69.4848 18.044 69.3168 17.56 68.9808 17.224C68.6528 16.88 68.2488 16.708 67.7688 16.708C67.2888 16.708 66.8848 16.88 66.5568 17.224C66.2368 17.56 66.0768 18.044 66.0768 18.676C66.0768 19.308 66.2328 19.796 66.5448 20.14C66.8648 20.476 67.2648 20.644 67.7448 20.644ZM80.7012 15.256C81.5172 15.256 82.1732 15.508 82.6692 16.012C83.1732 16.508 83.4252 17.204 83.4252 18.1V22H81.7452V18.328C81.7452 17.808 81.6132 17.412 81.3492 17.14C81.0852 16.86 80.7252 16.72 80.2692 16.72C79.8132 16.72 79.4492 16.86 79.1772 17.14C78.9132 17.412 78.7812 17.808 78.7812 18.328V22H77.1012V18.328C77.1012 17.808 76.9692 17.412 76.7052 17.14C76.4412 16.86 76.0812 16.72 75.6252 16.72C75.1612 16.72 74.7932 16.86 74.5212 17.14C74.2572 17.412 74.1252 17.808 74.1252 18.328V22H72.4452V15.352H74.1252V16.156C74.3412 15.876 74.6172 15.656 74.9532 15.496C75.2972 15.336 75.6732 15.256 76.0812 15.256C76.6012 15.256 77.0652 15.368 77.4732 15.592C77.8812 15.808 78.1972 16.12 78.4212 16.528C78.6372 16.144 78.9492 15.836 79.3572 15.604C79.7732 15.372 80.2212 15.256 80.7012 15.256ZM91.1994 18.532C91.1994 18.772 91.1834 18.988 91.1514 19.18H86.2914C86.3314 19.66 86.4994 20.036 86.7954 20.308C87.0914 20.58 87.4554 20.716 87.8874 20.716C88.5114 20.716 88.9554 20.448 89.2194 19.912H91.0314C90.8394 20.552 90.4714 21.08 89.9274 21.496C89.3834 21.904 88.7154 22.108 87.9234 22.108C87.2834 22.108 86.7074 21.968 86.1954 21.688C85.6914 21.4 85.2954 20.996 85.0074 20.476C84.7274 19.956 84.5874 19.356 84.5874 18.676C84.5874 17.988 84.7274 17.384 85.0074 16.864C85.2874 16.344 85.6794 15.944 86.1834 15.664C86.6874 15.384 87.2674 15.244 87.9234 15.244C88.5554 15.244 89.1194 15.38 89.6154 15.652C90.1194 15.924 90.5074 16.312 90.7794 16.816C91.0594 17.312 91.1994 17.884 91.1994 18.532ZM89.4594 18.052C89.4514 17.62 89.2954 17.276 88.9914 17.02C88.6874 16.756 88.3154 16.624 87.8754 16.624C87.4594 16.624 87.1074 16.752 86.8194 17.008C86.5394 17.256 86.3674 17.604 86.3034 18.052H89.4594ZM94.9697 22.108C94.4257 22.108 93.9377 22.012 93.5057 21.82C93.0737 21.62 92.7297 21.352 92.4737 21.016C92.2257 20.68 92.0897 20.308 92.0657 19.9H93.7577C93.7897 20.156 93.9137 20.368 94.1297 20.536C94.3537 20.704 94.6297 20.788 94.9577 20.788C95.2777 20.788 95.5257 20.724 95.7017 20.596C95.8857 20.468 95.9777 20.304 95.9777 20.104C95.9777 19.888 95.8657 19.728 95.6417 19.624C95.4257 19.512 95.0777 19.392 94.5977 19.264C94.1017 19.144 93.6937 19.02 93.3737 18.892C93.0617 18.764 92.7897 18.568 92.5577 18.304C92.3337 18.04 92.2217 17.684 92.2217 17.236C92.2217 16.868 92.3257 16.532 92.5337 16.228C92.7497 15.924 93.0537 15.684 93.4457 15.508C93.8457 15.332 94.3137 15.244 94.8497 15.244C95.6417 15.244 96.2737 15.444 96.7457 15.844C97.2177 16.236 97.4777 16.768 97.5257 17.44H95.9177C95.8937 17.176 95.7817 16.968 95.5817 16.816C95.3897 16.656 95.1297 16.576 94.8017 16.576C94.4977 16.576 94.2617 16.632 94.0937 16.744C93.9337 16.856 93.8537 17.012 93.8537 17.212C93.8537 17.436 93.9657 17.608 94.1897 17.728C94.4137 17.84 94.7617 17.956 95.2337 18.076C95.7137 18.196 96.1097 18.32 96.4217 18.448C96.7337 18.576 97.0017 18.776 97.2257 19.048C97.4577 19.312 97.5777 19.664 97.5857 20.104C97.5857 20.488 97.4777 20.832 97.2617 21.136C97.0537 21.44 96.7497 21.68 96.3497 21.856C95.9577 22.024 95.4977 22.108 94.9697 22.108ZM100.921 16.732V19.948C100.921 20.172 100.973 20.336 101.077 20.44C101.189 20.536 101.373 20.584 101.629 20.584H102.409V22H101.353C99.9367 22 99.2287 21.312 99.2287 19.936V16.732H98.4367V15.352H99.2287V13.708H100.921V15.352H102.409V16.732H100.921ZM103.185 18.652C103.185 17.98 103.317 17.384 103.581 16.864C103.853 16.344 104.217 15.944 104.673 15.664C105.137 15.384 105.653 15.244 106.221 15.244C106.717 15.244 107.149 15.344 107.517 15.544C107.893 15.744 108.193 15.996 108.417 16.3V15.352H110.109V22H108.417V21.028C108.201 21.34 107.901 21.6 107.517 21.808C107.141 22.008 106.705 22.108 106.209 22.108C105.649 22.108 105.137 21.964 104.673 21.676C104.217 21.388 103.853 20.984 103.581 20.464C103.317 19.936 103.185 19.332 103.185 18.652ZM108.417 18.676C108.417 18.268 108.337 17.92 108.177 17.632C108.017 17.336 107.801 17.112 107.529 16.96C107.257 16.8 106.965 16.72 106.653 16.72C106.341 16.72 106.053 16.796 105.789 16.948C105.525 17.1 105.309 17.324 105.141 17.62C104.981 17.908 104.901 18.252 104.901 18.652C104.901 19.052 104.981 19.404 105.141 19.708C105.309 20.004 105.525 20.232 105.789 20.392C106.061 20.552 106.349 20.632 106.653 20.632C106.965 20.632 107.257 20.556 107.529 20.404C107.801 20.244 108.017 20.02 108.177 19.732C108.337 19.436 108.417 19.084 108.417 18.676ZM118.11 15.352L113.994 25.144H112.206L113.646 21.832L110.982 15.352H112.866L114.582 19.996L116.322 15.352H118.11Z"
        fill="#199342" />
</svg>